#!OML:ASF X:\für Bonn\!DataBase\2005_08_10_Bjorn_Final\c3d\bjorn.ASF
:FULLY-SPECIFIED
:DEGREES
166
root 0.699828 19.5045 1.92942 -171.035 -2.60459 -180.273
lowerback -2.2426 1.32519 4.25628
upperback 5.19456 1.29535 0.312296
thorax 6.77453 0.760108 -1.96207
lowerneck -15.0875 -2.4992 0.737066
upperneck 15.024 -3.22208 -2.82216
head 7.01927 -1.81675 -1.37585
rclavicle -5.96354e-015 -1.11319e-014
rhumerus 75.4178 3.90644 -78.6104
rradius 6.33502
rwrist 51.3809
rhand -13.866 8.08804
rfingers 7.12502
rthumb 12.2583 -21.5327
lclavicle -5.96354e-015 -1.11319e-014
lhumerus 75.5844 -12.2932 82.9597
lradius 5.55008
lwrist -59.6246
lhand -19.0802 -4.55327
lfingers 7.12502
lthumb 7.22769 25.3033
rfemur -18.9133 -13.574 17.0056
rtibia 32.2882
rfoot -13.0098 13.8922
rtoes -17.0321
lfemur -17.9528 9.82643 -17.8801
ltibia 30.5904
lfoot -11.2147 -9.53219
ltoes -7.64601
167
root 0.708914 19.5216 1.90221 -170.946 -2.68329 -180.068
lowerback -2.65147 1.3436 4.40463
upperback 5.06392 1.31257 0.298001
thorax 6.87799 0.784124 -2.05168
lowerneck -14.7537 -2.55164 0.62412
upperneck 15.0296 -3.3086 -2.63522
head 6.96723 -1.84944 -1.30004
rclavicle 8.15017e-015 1.23246e-014
rhumerus 75.7701 3.74127 -78.6139
rradius 5.88518
rwrist 51.531
rhand -14.3265 8.00627
rfingers 7.12502
rthumb 11.8142 -21.6405
lclavicle 8.15017e-015 1.23246e-014
lhumerus 75.7965 -12.375 82.7669
lradius 5.66038
lwrist -59.5378
lhand -19.0283 -4.61746
lfingers 7.12502
lthumb 7.2778 25.2374
rfemur -18.6245 -14.2987 17.3149
rtibia 31.6994
rfoot -12.6434 14.4161
rtoes -16.9991
lfemur -18.0239 10.8908 -17.5845
ltibia 30.6079
lfoot -10.8463 -10.7933
ltoes -6.9438
168
root 0.718145 19.5306 1.8784 -170.818 -2.74464 -179.862
lowerback -3.08566 1.36918 4.54822
upperback 4.94594 1.33419 0.296797
thorax 7.00978 0.80961 -2.12381
lowerneck -14.5429 -2.61581 0.463233
upperneck 15.0985 -3.4033 -2.43287
head 6.95827 -1.88805 -1.21554
rclavicle -2.24627e-014 -2.06736e-014
rhumerus 76.1082 3.58498 -78.5972
rradius 5.55514
rwrist 51.8587
rhand -14.773 7.86822
rfingers 7.12502
rthumb 11.3837 -21.8028
lclavicle -2.24627e-014 -2.06736e-014
lhumerus 76.0819 -12.433 82.5858
lradius 5.71871
lwrist -59.4658
lhand -18.9692 -4.69708
lfingers 7.12502
lthumb 7.33493 25.1558
rfemur -18.4888 -15.0723 17.6431
rtibia 31.2787
rfoot -12.4083 15.0284
rtoes -17.0064
lfemur -18.103 12.0431 -17.3181
ltibia 30.712
lfoot -10.7549 -12.0249
ltoes -7.086
169
root 0.727944 19.5262 1.85774 -170.627 -2.82022 -179.717
lowerback -3.54826 1.37549 4.62342
upperback 4.8091 1.33441 0.288532
thorax 7.13412 0.82139 -2.1667
lowerneck -14.3434 -2.65668 0.33396
upperneck 15.142 -3.46244 -2.29348
head 6.94206 -1.91349 -1.15274
rclavicle 1.0635e-014 1.19271e-015
rhumerus 76.3231 3.47 -78.5915
rradius 5.48682
rwrist 52.3114
rhand -15.0803 7.70905
rfingers 7.12502
rthumb 11.0873 -21.9781
lclavicle 1.0635e-014 1.19271e-015
lhumerus 76.369 -12.4548 82.4071
lradius 5.77153
lwrist -59.3661
lhand -18.729 -4.77553
lfingers 7.12502
lthumb 7.56678 25.0691
rfemur -18.5367 -15.9177 17.9294
rtibia 31.0319
rfoot -12.2155 15.7368
rtoes -16.6388
lfemur -18.2894 12.1985 -17.1021
ltibia 30.8627
lfoot -10.8987 -12.369
ltoes -6.96322
170
root 0.737642 19.5099 1.84057 -170.522 -2.88504 -179.605
lowerback -3.89393 1.39342 4.68509
upperback 4.7012 1.35339 0.259113
thorax 7.22329 0.840422 -2.22432
lowerneck -14.1796 -2.70729 0.194161
upperneck 15.1414 -3.53712 -2.11051
head 6.91874 -1.94184 -1.07551
rclavicle 1.78906e-015 2.26615e-014
rhumerus 76.4805 3.31931 -78.5969
rradius 5.56043
rwrist 52.8453
rhand -15.2793 7.5516
rfingers 7.12502
rthumb 10.8954 -22.1457
lclavicle 1.78906e-015 2.26615e-014
lhumerus 76.6735 -12.5264 82.2258
lradius 5.81319
lwrist -59.3091
lhand -18.3751 -4.89653
lfingers 7.12502
lthumb 7.90835 24.9355
rfemur -18.57 -16.8408 18.1638
rtibia 30.9121
rfoot -12.1736 16.5265
rtoes -16.6306
lfemur -18.3905 12.3581 -16.9105
ltibia 31.0416
lfoot -11.151 -12.7527
ltoes -6.80158
171
root 0.748621 19.4817 1.82448 -170.496 -2.92458 -179.528
lowerback -4.14057 1.39949 4.65879
upperback 4.61261 1.36201 0.261856
thorax 7.27093 0.846709 -2.20177
lowerneck -14.0741 -2.74464 0.0574622
upperneck 15.1718 -3.57919 -2.02164
head 6.91421 -1.96349 -1.02753
rclavicle -3.80673e-014 -3.97569e-015
rhumerus 76.7048 3.21486 -78.5467
rradius 5.56464
rwrist 53.3703
rhand -15.3884 7.37956
rfingers 7.12502
rthumb 10.7902 -22.3233
lclavicle -3.80673e-014 -3.97569e-015
lhumerus 76.9453 -12.5347 82.0911
lradius 5.83928
lwrist -59.2475
lhand -18.0253 -5.01242
lfingers 7.12502
lthumb 8.24587 24.8067
rfemur -18.5552 -17.658 18.3242
rtibia 30.8757
rfoot -12.2525 17.3048
rtoes -16.2693
lfemur -18.4067 12.5271 -16.7561
ltibia 31.2169
lfoot -11.5547 -13.0948
ltoes -6.6443
172
root 0.760009 19.4466 1.81025 -170.501 -2.9807 -179.471
lowerback -4.37043 1.41127 4.60338
upperback 4.56982 1.37652 0.268515
thorax 7.35743 0.85423 -2.15798
lowerneck -14.0845 -2.79414 -0.0977032
upperneck 15.2045 -3.63672 -1.89068
head 6.93164 -1.98848 -0.966534
rclavicle 2.50469e-014 3.18055e-015
rhumerus 77.0047 3.06476 -78.4658
rradius 5.56083
rwrist 53.7572
rhand -15.3629 7.26461
rfingers 7.12502
rthumb 10.8148 -22.437
lclavicle 2.50469e-014 3.18055e-015
lhumerus 77.2751 -12.5652 81.9677
lradius 5.86768
lwrist -59.2587
lhand -17.6312 -5.13227
lfingers 7.12502
lthumb 8.62628 24.6715
rfemur -18.5151 -18.4253 18.4587
rtibia 30.8702
rfoot -12.4989 18.0658
rtoes -15.8435
lfemur -18.3881 12.6827 -16.6282
ltibia 31.3775
lfoot -12.1055 -13.3829
ltoes -6.79719
173
root 0.770828 19.4079 1.79702 -170.535 -3.02163 -179.437
lowerback -4.54439 1.41769 4.53757
upperback 4.52077 1.38869 0.263748
thorax 7.40446 0.859467 -2.12175
lowerneck -14.1192 -2.83782 -0.226248
upperneck 15.3184 -3.68503 -1.82015
head 6.97805 -2.01453 -0.930292
rclavicle -1.02374e-014 2.38542e-015
rhumerus 77.2971 2.91669 -78.3881
rradius 5.51745
rwrist 54.001
rhand -15.2786 7.24077
rfingers 7.12502
rthumb 10.8961 -22.4565
lclavicle -1.02374e-014 2.38542e-015
lhumerus 77.5826 -12.5828 81.8388
lradius 5.86559
lwrist -59.2403
lhand -17.3029 -5.24456
lfingers 7.12502
lthumb 8.9431 24.5459
rfemur -18.3842 -19.0806 18.5522
rtibia 30.8623
rfoot -12.9967 18.6989
rtoes -16.0216
lfemur -18.3263 12.8437 -16.5323
ltibia 31.5221
lfoot -12.7719 -13.6232
ltoes -7.20379
